<svg width="150" height="226" viewBox="0 0 150 226" fill="none" xmlns="http://www.w3.org/2000/svg">
<g clip-path="url(#clip0_74_2)">
<path d="M24.4632 15.5C28.4632 22.5 29.1532 38 16.6278 38C4.29315 38 4.02661 28 5.78371 18.5C7.54081 9 15.0201 3.14682 19.0776 0C19.0776 15 24.3357 16.534 20.4632 28C23.565 24.2246 24.2365 21.7123 24.4632 15.5Z" fill="#F5821F"/>
<path d="M37.5 197H0V44H67C112.84 44 150 81.1604 150 127V197H110C143.73 167.358 137.5 66.7543 74.5 66.7543C6.95405 66.7543 -0.170994 173.656 37.5 197Z" fill="#0C4DA2"/>
<path fill-rule="evenodd" clip-rule="evenodd" d="M74.8142 197C133.814 197 131.814 80.0002 74.8142 80.0002C14.3142 80.0002 15.8143 197 74.8142 197ZM57.5 110.5C57.5 86.5002 91 85.0002 91 110.5H74.5V129.601H90.5V165.5C90.5 189.601 58.5 191.601 58.5 165.5H74.5V146.5H57.5V110.5Z" fill="#0C4DA2"/>
<path d="M8.74563 44H0.00145479C-0.176447 117.757 15.9683 157.809 45.0015 173C17.4958 150.342 8.17522 123.316 8.74563 44Z" fill="#F5821F"/>
<path d="M33.5828 44H22.0772H22.0361C13.0499 113.96 16.2765 166.939 72.184 183.971C26.9467 157.084 19.2848 122.975 33.5828 44Z" fill="#F5821F"/>
<path d="M22.0362 44H9.02448C8.45407 123.316 17.7746 150.342 45.2803 173C45.2803 173 55.7053 182.917 72.2276 183.996L72.1841 183.971C16.2766 166.939 13.05 113.96 22.0362 44Z" fill="#0C4DA2"/>
<path d="M12.577 210.152C12.0155 209.448 11.3979 208.834 10.7241 208.309C10.0628 207.784 9.35163 207.379 8.59052 207.093C7.82941 206.795 7.01216 206.646 6.13876 206.646C5.29031 206.646 4.63526 206.825 4.17361 207.182C3.71195 207.54 3.48113 208.035 3.48113 208.667C3.48113 208.905 3.51856 209.144 3.59342 209.382C3.68076 209.609 3.78682 209.824 3.91159 210.026H2.99452C2.64516 209.716 2.35818 209.353 2.13359 208.935C1.909 208.506 1.79671 208.071 1.79671 207.629C1.79671 206.854 2.10864 206.222 2.7325 205.733C3.35635 205.244 4.22976 205 5.3527 205C6.43821 205 7.49253 205.215 8.51566 205.644C9.53878 206.073 10.4995 206.675 11.3979 207.451C12.2962 208.226 13.0823 209.126 13.7561 210.152H12.577ZM4.15489 221.17L2.41433 220.043V210.831H4.37948V221.17H4.15489ZM0.917071 211.457L0 210.098V209.883H5.85802L6.77509 211.261V211.457H0.917071Z" fill="#F5821F"/>
<path d="M10.4399 218.988C9.85344 218.988 9.34188 218.887 8.90518 218.684C8.48096 218.469 8.08169 218.207 7.70737 217.897C7.32058 217.575 7.01489 217.211 6.7903 216.806C6.56571 216.4 6.45342 215.965 6.45342 215.5C6.45342 214.987 6.59067 214.54 6.86516 214.158C7.13966 213.765 7.49526 213.461 7.93196 213.246C8.38114 213.032 8.86775 212.924 9.39179 212.924C10.0406 212.924 10.6021 213.032 11.0762 213.246C11.5628 213.449 11.987 213.687 12.3489 213.962V215.089C12.012 214.886 11.6751 214.743 11.3382 214.659C11.0138 214.564 10.652 214.516 10.2527 214.516C9.80353 214.516 9.4105 214.6 9.07362 214.767C8.73674 214.934 8.47472 215.148 8.28756 215.411C8.11288 215.673 8.02554 215.953 8.02554 216.251C8.02554 216.585 8.15655 216.877 8.41857 217.128C8.68059 217.378 9.04867 217.503 9.5228 217.503C10.0718 217.503 10.5958 217.342 11.0949 217.02C11.6065 216.698 12.1056 216.245 12.5922 215.661L12.6483 217.933C12.4237 218.219 12.118 218.469 11.7313 218.684C11.3445 218.887 10.914 218.988 10.4399 218.988ZM13.8087 221.17L12.0681 220.043V210.831H14.0333V221.17H13.8087ZM5.74222 211.457L4.82515 210.098V209.883H15.5118L16.4476 211.261V211.457H5.74222Z" fill="#F5821F"/>
<path d="M20.2212 220.365C19.7595 220.365 19.2979 220.282 18.8362 220.115C18.3746 219.948 17.9566 219.721 17.5823 219.435C17.2204 219.149 16.9272 218.833 16.7026 218.487C16.4905 218.141 16.3845 217.796 16.3845 217.45C16.3845 216.806 16.7276 216.311 17.4138 215.965C18.1001 215.619 18.9984 215.452 20.1089 215.464L21.1382 217.003C20.19 217.003 19.4476 217.098 18.9111 217.289C18.3746 217.48 18.1063 217.754 18.1063 218.112C18.1063 218.35 18.2061 218.541 18.4058 218.684C18.6054 218.827 18.9048 218.899 19.3041 218.899C20.0153 218.899 20.714 218.672 21.4003 218.219C22.0865 217.754 22.7166 217.152 23.2906 216.412V219.042C22.9287 219.423 22.492 219.739 21.9805 219.99C21.4814 220.24 20.8949 220.365 20.2212 220.365ZM17.7881 216.323C17.2516 216.108 16.8087 215.834 16.4593 215.5C16.11 215.154 15.9353 214.779 15.9353 214.373C15.9353 213.908 16.1474 213.538 16.5716 213.264C16.9958 212.99 17.576 212.853 18.3122 212.853C18.5742 212.853 18.8113 212.865 19.0234 212.888C19.248 212.912 19.4788 212.936 19.7159 212.96L18.9111 213.3V211.046H20.8014V214.051C20.6641 214.027 20.4894 214.015 20.2773 214.015C20.0652 214.003 19.8656 213.997 19.6784 213.997C19.0296 213.997 18.5368 214.075 18.1999 214.23C17.863 214.373 17.6946 214.6 17.6946 214.91C17.6946 215.089 17.7694 215.261 17.9191 215.428C18.0689 215.583 18.2872 215.733 18.5742 215.876L17.7881 216.323ZM24.713 222.136L22.9724 221.009V210.813H24.9563V222.136H24.713ZM15.4112 211.457L14.4754 210.098V209.883H26.4348L27.3519 211.261V211.457H15.4112Z" fill="#F5821F"/>
<path d="M29.56 221.17L27.8195 220.043V210.831H29.7846V221.17H29.56ZM26.3222 211.457L25.4051 210.098V209.883H31.2632L32.1802 211.261V211.457H26.3222Z" fill="#F5821F"/>
<path d="M36.5562 219.274C36.0946 219.274 35.6391 219.191 35.19 219.024C34.7533 218.857 34.329 218.601 33.9173 218.255C33.6054 217.98 33.3184 217.67 33.0564 217.325C32.8068 216.967 32.6821 216.591 32.6821 216.198C32.6821 215.697 32.8567 215.279 33.2061 214.945C33.5555 214.612 34.0233 214.349 34.6098 214.158C35.2087 213.968 35.8575 213.854 36.5562 213.819L37.6979 215.357C36.6872 215.44 35.9012 215.613 35.3397 215.876C34.7782 216.126 34.4975 216.472 34.4975 216.913C34.4975 217.152 34.5973 217.354 34.7969 217.521C34.9966 217.676 35.3023 217.754 35.714 217.754C36.288 217.754 36.8806 217.581 37.492 217.235C38.1034 216.889 38.6461 216.436 39.1203 215.876V218.273C38.8582 218.523 38.5089 218.756 38.0722 218.97C37.6355 219.173 37.1302 219.274 36.5562 219.274ZM34.7408 215.017C34.1668 214.719 33.649 214.403 33.1874 214.069C32.7257 213.735 32.3576 213.365 32.0831 212.96C31.8211 212.543 31.6901 212.083 31.6901 211.583C31.6901 211.201 31.7837 210.867 31.9709 210.581C32.1705 210.295 32.4387 210.074 32.7756 209.919C33.1125 209.752 33.4868 209.669 33.8986 209.669C34.2978 209.669 34.6597 209.746 34.9841 209.901C35.3085 210.044 35.6017 210.247 35.8637 210.509C36.0883 210.724 36.2692 210.968 36.4065 211.243C36.5437 211.517 36.6124 211.791 36.6124 212.066C36.6124 212.447 36.4564 212.745 36.1445 212.96C35.845 213.175 35.4645 213.282 35.0028 213.282C34.6035 213.282 34.2292 213.228 33.8799 213.121C33.543 213.002 33.2248 212.847 32.9254 212.656L33.0002 212.334C33.1125 212.382 33.231 212.417 33.3558 212.441C33.4806 212.465 33.6303 212.477 33.805 212.477C34.2292 212.477 34.5973 212.394 34.9092 212.227C35.2336 212.06 35.3958 211.827 35.3958 211.529C35.3958 211.326 35.3334 211.165 35.2087 211.046C35.0839 210.927 34.9092 210.867 34.6846 210.867C34.3353 210.867 34.0421 211.004 33.805 211.279C33.5679 211.541 33.4494 211.869 33.4494 212.262C33.4494 212.739 33.6116 213.139 33.936 213.461C34.2729 213.783 34.7283 214.063 35.3023 214.302L34.7408 215.017ZM40.655 221.17L38.9144 220.043V210.831H40.8983V221.17H40.655ZM38.1845 211.457L37.2487 210.098V209.883H42.3768L43.2939 211.261V211.457H38.1845Z" fill="#F5821F"/>
<path d="M45.2918 217.933C44.9923 217.933 44.6929 217.861 44.3934 217.718C44.1064 217.563 43.8444 217.372 43.6074 217.146C43.3703 216.907 43.1769 216.651 43.0272 216.376C42.8899 216.09 42.8213 215.81 42.8213 215.536C42.8213 215.142 42.971 214.826 43.2705 214.588C43.5699 214.349 44.0316 214.23 44.6554 214.23C45.2793 214.23 45.9156 214.26 46.5644 214.319C47.2133 214.379 47.7934 214.445 48.305 214.516C48.8166 214.588 49.1659 214.647 49.3531 214.695V216.019C49.141 216.007 48.8914 215.995 48.6045 215.983C48.33 215.971 48.018 215.959 47.6687 215.947C47.3318 215.935 46.97 215.929 46.5832 215.929C46.4584 215.929 46.3461 215.929 46.2463 215.929C46.1589 215.929 46.0279 215.935 45.8532 215.947L46.0778 215.589C46.1153 215.709 46.1465 215.894 46.1714 216.144C46.2088 216.394 46.2276 216.657 46.2276 216.931C46.2276 217.217 46.1527 217.456 46.003 217.647C45.8657 217.837 45.6287 217.933 45.2918 217.933ZM50.7381 221.17L48.9975 220.043V210.831H50.9626V221.17H50.7381ZM42.2598 211.457L41.3428 210.098V209.883H52.4412L53.3583 211.261V211.457H42.2598Z" fill="#F5821F"/>
<path d="M49.9691 208.345C49.208 208.345 48.8274 207.957 48.8274 207.182C48.8274 206.801 48.9273 206.514 49.1269 206.324C49.314 206.121 49.5948 206.02 49.9691 206.02C50.3559 206.02 50.6491 206.121 50.8487 206.324C51.0359 206.514 51.1295 206.801 51.1295 207.182C51.1295 207.957 50.7427 208.345 49.9691 208.345Z" fill="#F5821F"/>
<path d="M63.2299 221.313C62.6185 220.86 62.0321 220.371 61.4706 219.847C60.9092 219.31 60.4101 218.773 59.9734 218.237C59.5492 217.688 59.2123 217.17 58.9627 216.681C58.7132 216.18 58.5884 215.739 58.5884 215.357C58.5884 215.023 58.6882 214.773 58.8879 214.606C59.0875 214.427 59.3682 214.337 59.7301 214.337C60.0171 214.337 60.3352 214.397 60.6846 214.516C61.0464 214.624 61.427 214.779 61.8262 214.981L61.0028 215.017C61.2273 214.79 61.3771 214.516 61.4519 214.194C61.5393 213.86 61.5829 213.526 61.5829 213.193C61.5829 212.835 61.5455 212.465 61.4706 212.083C61.4083 211.69 61.3147 211.338 61.1899 211.028H62.9118C63.0615 211.481 63.1863 211.952 63.2861 212.441C63.3859 212.918 63.4358 213.389 63.4358 213.854C63.4358 214.665 63.2174 215.333 62.7807 215.858C62.3565 216.382 61.7327 216.693 60.9092 216.788C60.7969 216.8 60.6846 216.812 60.5723 216.824C60.46 216.824 60.3415 216.83 60.2167 216.842L60.1044 216.341C60.4538 216.83 60.878 217.295 61.3771 217.736C61.8762 218.177 62.4064 218.583 62.9679 218.952C63.5419 219.322 64.0971 219.656 64.6336 219.954L63.2299 221.313ZM65.532 216.806C65.1077 216.806 64.6835 216.758 64.2593 216.663C63.8475 216.555 63.4608 216.424 63.0989 216.269C62.7371 216.102 62.4252 215.923 62.1631 215.733L62.5187 214.749C62.8182 214.916 63.1613 215.059 63.5481 215.178C63.9474 215.297 64.3716 215.357 64.8208 215.357C65.2949 215.357 65.7316 215.291 66.1309 215.16C66.5426 215.029 66.8982 214.85 67.1977 214.624L67.2351 216.448C67.023 216.555 66.7734 216.645 66.4865 216.716C66.212 216.776 65.8938 216.806 65.532 216.806ZM68.5078 221.17L66.7672 220.043V210.831H68.7511V221.17H68.5078ZM57.5029 211.457L56.5858 210.098V209.883H70.2109L71.1467 211.261V211.457H57.5029Z" fill="#F5821F"/>
<path d="M74.8117 218.988C74.2253 218.988 73.7138 218.887 73.2771 218.684C72.8528 218.469 72.4536 218.207 72.0792 217.897C71.6925 217.575 71.3868 217.211 71.1622 216.806C70.9376 216.4 70.8253 215.965 70.8253 215.5C70.8253 214.987 70.9625 214.54 71.237 214.158C71.5115 213.765 71.8671 213.461 72.3038 213.246C72.753 213.032 73.2396 212.924 73.7637 212.924C74.4125 212.924 74.9739 213.032 75.4481 213.246C75.9347 213.449 76.3589 213.687 76.7208 213.962V215.089C76.3839 214.886 76.047 214.743 75.7101 214.659C75.3857 214.564 75.0239 214.516 74.6246 214.516C74.1754 214.516 73.7824 214.6 73.4455 214.767C73.1086 214.934 72.8466 215.148 72.6594 215.411C72.4848 215.673 72.3974 215.953 72.3974 216.251C72.3974 216.585 72.5284 216.877 72.7904 217.128C73.0525 217.378 73.4205 217.503 73.8947 217.503C74.4437 217.503 74.9677 217.342 75.4668 217.02C75.9784 216.698 76.4774 216.245 76.9641 215.661L77.0202 217.933C76.7956 218.219 76.4899 218.469 76.1031 218.684C75.7163 218.887 75.2859 218.988 74.8117 218.988ZM78.1806 221.17L76.44 220.043V210.831H78.4052V221.17H78.1806ZM70.1141 211.457L69.197 210.098V209.883H79.8837L80.8195 211.261V211.457H70.1141Z" fill="#F5821F"/>
<path d="M78.2854 210.026H77.3122C76.8755 209.537 76.5324 209.066 76.2828 208.613C76.0208 208.16 75.8898 207.683 75.8898 207.182C75.8898 206.586 76.0957 206.097 76.5074 205.716C76.9192 205.322 77.4619 205.125 78.1357 205.125C78.7221 205.125 79.215 205.268 79.6142 205.555C80.001 205.829 80.3441 206.175 80.6436 206.592L80.157 207.111C79.9823 206.98 79.7951 206.884 79.5955 206.825C79.3834 206.753 79.1651 206.717 78.9405 206.717C78.5162 206.717 78.1794 206.848 77.9298 207.111C77.6803 207.361 77.5555 207.701 77.5555 208.13C77.5555 208.452 77.6304 208.786 77.7801 209.132C77.9173 209.466 78.0858 209.764 78.2854 210.026Z" fill="#F5821F"/>
<path d="M85.1732 219.274C84.7116 219.274 84.2562 219.191 83.807 219.024C83.3703 218.857 82.9461 218.601 82.5343 218.255C82.2224 217.98 81.9354 217.67 81.6734 217.325C81.4239 216.967 81.2991 216.591 81.2991 216.198C81.2991 215.697 81.4738 215.279 81.8231 214.945C82.1725 214.612 82.6404 214.349 83.2268 214.158C83.8257 213.968 84.4745 213.854 85.1732 213.819L86.3149 215.357C85.3043 215.44 84.5182 215.613 83.9567 215.876C83.3953 216.126 83.1145 216.472 83.1145 216.913C83.1145 217.152 83.2143 217.354 83.414 217.521C83.6136 217.676 83.9193 217.754 84.331 217.754C84.905 217.754 85.4977 217.581 86.109 217.235C86.7204 216.889 87.2632 216.436 87.7373 215.876V218.273C87.4753 218.523 87.1259 218.756 86.6892 218.97C86.2525 219.173 85.7472 219.274 85.1732 219.274ZM83.3578 215.017C82.7839 214.719 82.2661 214.403 81.8044 214.069C81.3428 213.735 80.9747 213.365 80.7002 212.96C80.4382 212.543 80.3072 212.083 80.3072 211.583C80.3072 211.201 80.4007 210.867 80.5879 210.581C80.7875 210.295 81.0558 210.074 81.3927 209.919C81.7295 209.752 82.1039 209.669 82.5156 209.669C82.9149 209.669 83.2767 209.746 83.6011 209.901C83.9255 210.044 84.2187 210.247 84.4808 210.509C84.7053 210.724 84.8863 210.968 85.0235 211.243C85.1608 211.517 85.2294 211.791 85.2294 212.066C85.2294 212.447 85.0734 212.745 84.7615 212.96C84.462 213.175 84.0815 213.282 83.6198 213.282C83.2206 213.282 82.8463 213.228 82.4969 213.121C82.16 213.002 81.8418 212.847 81.5424 212.656L81.6173 212.334C81.7296 212.382 81.8481 212.417 81.9729 212.441C82.0976 212.465 82.2474 212.477 82.422 212.477C82.8463 212.477 83.2143 212.394 83.5263 212.227C83.8507 212.06 84.0129 211.827 84.0129 211.529C84.0129 211.326 83.9505 211.165 83.8257 211.046C83.7009 210.927 83.5263 210.867 83.3017 210.867C82.9523 210.867 82.6591 211.004 82.422 211.279C82.185 211.541 82.0664 211.869 82.0664 212.262C82.0664 212.739 82.2286 213.139 82.553 213.461C82.8899 213.783 83.3453 214.063 83.9193 214.302L83.3578 215.017ZM89.272 221.17L87.5314 220.043V210.831H89.5153V221.17H89.272ZM86.8015 211.457L85.8657 210.098V209.883H90.9938L91.9109 211.261V211.457H86.8015Z" fill="#F5821F"/>
<path d="M93.9088 217.933C93.6094 217.933 93.3099 217.861 93.0105 217.718C92.7235 217.563 92.4615 217.372 92.2244 217.146C91.9873 216.907 91.7939 216.651 91.6442 216.376C91.507 216.09 91.4383 215.81 91.4383 215.536C91.4383 215.142 91.5881 214.826 91.8875 214.588C92.187 214.349 92.6486 214.23 93.2725 214.23C93.8963 214.23 94.5327 214.26 95.1815 214.319C95.8303 214.379 96.4105 214.445 96.922 214.516C97.4336 214.588 97.783 214.647 97.9701 214.695V216.019C97.758 216.007 97.5085 215.995 97.2215 215.983C96.947 215.971 96.6351 215.959 96.2857 215.947C95.9488 215.935 95.587 215.929 95.2002 215.929C95.0754 215.929 94.9631 215.929 94.8633 215.929C94.776 215.929 94.645 215.935 94.4703 215.947L94.6949 215.589C94.7323 215.709 94.7635 215.894 94.7885 216.144C94.8259 216.394 94.8446 216.657 94.8446 216.931C94.8446 217.217 94.7697 217.456 94.62 217.647C94.4828 217.837 94.2457 217.933 93.9088 217.933ZM99.3551 221.17L97.6145 220.043V210.831H99.5797V221.17H99.3551ZM90.8769 211.457L89.9598 210.098V209.883H101.058L101.975 211.261V211.457H90.8769Z" fill="#F5821F"/>
<path d="M103.268 221.385L101.827 220.204L106.057 216.788L106.487 218.04C106.437 218.052 106.363 218.064 106.263 218.076C106.175 218.088 106.088 218.094 106.001 218.094C105.539 218.094 105.102 218.01 104.691 217.843C104.279 217.676 103.873 217.42 103.474 217.074C103.15 216.776 102.888 216.49 102.688 216.216C102.501 215.929 102.364 215.619 102.276 215.285C102.189 214.94 102.145 214.516 102.145 214.015V210.813H104.129V215.321C104.129 215.75 104.223 216.072 104.41 216.287C104.61 216.502 104.903 216.609 105.29 216.609C105.714 216.609 106.138 216.484 106.562 216.233C106.999 215.983 107.411 215.637 107.797 215.196L108.284 217.074L103.268 221.385ZM109.257 221.17L107.517 220.043V210.813H109.482V221.17H109.257ZM100.948 211.457L100.03 210.098V209.883H110.96L111.896 211.261V211.457H100.948Z" fill="#F5821F"/>
<path d="M116.263 219.274C115.801 219.274 115.345 219.191 114.896 219.024C114.46 218.857 114.035 218.601 113.624 218.255C113.312 217.98 113.025 217.67 112.763 217.325C112.513 216.967 112.388 216.591 112.388 216.198C112.388 215.697 112.563 215.279 112.912 214.945C113.262 214.612 113.73 214.349 114.316 214.158C114.915 213.968 115.564 213.854 116.263 213.819L117.404 215.357C116.394 215.44 115.608 215.613 115.046 215.876C114.485 216.126 114.204 216.472 114.204 216.913C114.204 217.152 114.304 217.354 114.503 217.521C114.703 217.676 115.009 217.754 115.42 217.754C115.994 217.754 116.587 217.581 117.198 217.235C117.81 216.889 118.352 216.436 118.827 215.876V218.273C118.565 218.523 118.215 218.756 117.779 218.97C117.342 219.173 116.837 219.274 116.263 219.274ZM114.447 215.017C113.873 214.719 113.355 214.403 112.894 214.069C112.432 213.735 112.064 213.365 111.79 212.96C111.527 212.543 111.396 212.083 111.396 211.583C111.396 211.201 111.49 210.867 111.677 210.581C111.877 210.295 112.145 210.074 112.482 209.919C112.819 209.752 113.193 209.669 113.605 209.669C114.004 209.669 114.366 209.746 114.69 209.901C115.015 210.044 115.308 210.247 115.57 210.509C115.795 210.724 115.976 210.968 116.113 211.243C116.25 211.517 116.319 211.791 116.319 212.066C116.319 212.447 116.163 212.745 115.851 212.96C115.551 213.175 115.171 213.282 114.709 213.282C114.31 213.282 113.936 213.228 113.586 213.121C113.249 213.002 112.931 212.847 112.632 212.656L112.707 212.334C112.819 212.382 112.937 212.417 113.062 212.441C113.187 212.465 113.337 212.477 113.511 212.477C113.936 212.477 114.304 212.394 114.616 212.227C114.94 212.06 115.102 211.827 115.102 211.529C115.102 211.326 115.04 211.165 114.915 211.046C114.79 210.927 114.616 210.867 114.391 210.867C114.042 210.867 113.748 211.004 113.511 211.279C113.274 211.541 113.156 211.869 113.156 212.262C113.156 212.739 113.318 213.139 113.642 213.461C113.979 213.783 114.435 214.063 115.009 214.302L114.447 215.017ZM120.361 221.17L118.621 220.043V210.831H120.605V221.17H120.361ZM117.891 211.457L116.955 210.098V209.883H122.083L123 211.261V211.457H117.891Z" fill="#F5821F"/>
<path d="M125.204 221.17L123.463 220.043V210.831H125.429V221.17H125.204ZM121.966 211.457L121.049 210.098V209.883H126.907L127.824 211.261V211.457H121.966Z" fill="#F5821F"/>
<path d="M129.823 217.933C129.524 217.933 129.224 217.861 128.925 217.718C128.638 217.563 128.376 217.372 128.139 217.146C127.902 216.907 127.708 216.651 127.559 216.376C127.421 216.09 127.353 215.81 127.353 215.536C127.353 215.142 127.503 214.826 127.802 214.588C128.101 214.349 128.563 214.23 129.187 214.23C129.811 214.23 130.447 214.26 131.096 214.319C131.745 214.379 132.325 214.445 132.837 214.516C133.348 214.588 133.697 214.647 133.885 214.695V216.019C133.672 216.007 133.423 215.995 133.136 215.983C132.861 215.971 132.55 215.959 132.2 215.947C131.863 215.935 131.501 215.929 131.115 215.929C130.99 215.929 130.878 215.929 130.778 215.929C130.69 215.929 130.559 215.935 130.385 215.947L130.609 215.589C130.647 215.709 130.678 215.894 130.703 216.144C130.74 216.394 130.759 216.657 130.759 216.931C130.759 217.217 130.684 217.456 130.534 217.647C130.397 217.837 130.16 217.933 129.823 217.933ZM135.27 221.17L133.529 220.043V210.831H135.494V221.17H135.27ZM126.791 211.457L125.874 210.098V209.883H136.973L137.89 211.261V211.457H126.791Z" fill="#F5821F"/>
<path d="M140.231 218.434C139.931 218.434 139.632 218.368 139.332 218.237C139.045 218.094 138.783 217.903 138.546 217.664C138.309 217.426 138.116 217.164 137.966 216.877C137.829 216.579 137.76 216.287 137.76 216.001C137.76 215.703 137.841 215.482 138.004 215.339C138.166 215.196 138.39 215.106 138.677 215.071C138.964 215.023 139.289 214.999 139.651 214.999C140.324 214.999 140.998 215.029 141.672 215.089C142.346 215.148 142.951 215.214 143.487 215.285C144.036 215.357 144.417 215.417 144.629 215.464V216.77C144.454 216.758 144.186 216.752 143.824 216.752C143.475 216.74 143.082 216.734 142.645 216.734C142.221 216.722 141.797 216.716 141.372 216.716C141.285 216.716 141.192 216.716 141.092 216.716C141.004 216.716 140.923 216.716 140.848 216.716L141.11 216.359V217.378C141.11 217.712 141.036 217.974 140.886 218.165C140.749 218.344 140.53 218.434 140.231 218.434ZM139.127 215.679V210.849H141.11V215.679H139.127ZM146.07 221.17L144.33 220.043V210.831H146.313V221.17H146.07ZM136.825 211.457L135.907 210.098V209.883H147.773L148.709 211.261V211.457H136.825Z" fill="#F5821F"/>
<path d="M149.195 226C148.596 225.296 148.097 224.754 147.698 224.372C147.299 224.003 146.937 223.74 146.612 223.585C146.301 223.442 145.964 223.371 145.602 223.371C145.365 223.371 145.146 223.388 144.947 223.424C144.735 223.46 144.535 223.508 144.348 223.567L143.749 221.886C143.949 221.814 144.167 221.761 144.404 221.725C144.629 221.701 144.859 221.689 145.096 221.689C145.521 221.689 145.901 221.743 146.238 221.85C146.563 221.957 146.899 222.148 147.249 222.422C147.598 222.697 147.985 223.078 148.409 223.567C148.846 224.056 149.376 224.688 150 225.463L149.195 226Z" fill="#F5821F"/>
</g>
<defs>
<clipPath id="clip0_74_2">
<rect width="150" height="226" fill="white"/>
</clipPath>
</defs>
</svg>
